<svg width="23" height="23" viewBox="0 0 23 23" fill="none" xmlns="http://www.w3.org/2000/svg">
<path fill-rule="evenodd" clip-rule="evenodd" d="M11.3654 2.21875C6.29052 2.21875 2.17655 6.37411 2.17655 11.5C2.17655 16.3415 5.84664 20.3171 10.53 20.7434V14.0313H8.02397C7.56263 14.0313 7.18863 13.6536 7.18863 13.1876C7.18863 12.7216 7.56263 12.3438 8.02397 12.3438H10.53V9.8126C10.53 8.91749 10.8821 8.05905 11.5087 7.42611C12.1353 6.79318 12.9852 6.4376 13.8714 6.4376H15.5421C16.0034 6.4376 16.3774 6.81536 16.3774 7.28135C16.3774 7.74734 16.0034 8.1251 15.5421 8.1251H13.8714C13.4283 8.1251 13.0034 8.30289 12.69 8.61936C12.3767 8.93582 12.2007 9.36505 12.2007 9.8126V12.3438H14.7067C15.1681 12.3438 15.5421 12.7216 15.5421 13.1876C15.5421 13.6536 15.1681 14.0313 14.7067 14.0313H12.2007V20.7434C16.8841 20.3171 20.5542 16.3415 20.5542 11.5C20.5542 6.37411 16.4402 2.21875 11.3654 2.21875ZM0.505859 11.5C0.505859 5.44213 5.36782 0.53125 11.3654 0.53125C17.3629 0.53125 22.2249 5.44213 22.2249 11.5C22.2249 17.5579 17.3629 22.4688 11.3654 22.4688C5.36782 22.4688 0.505859 17.5579 0.505859 11.5Z" fill="white"/>
</svg>
