<svg width="21" height="21" viewBox="0 0 21 21" fill="none" xmlns="http://www.w3.org/2000/svg">
<path fill-rule="evenodd" clip-rule="evenodd" d="M11.7863 2.10314C9.86299 1.91181 7.93349 2.39998 6.32658 3.48449C4.71967 4.569 3.53476 6.18273 2.97375 8.05074C2.41274 9.91875 2.51034 11.9254 3.24992 13.7289C3.9895 15.5324 5.32531 17.021 7.02972 17.9412C8.73414 18.8614 10.7017 19.1562 12.5972 18.7754C14.4927 18.3946 16.1988 17.3617 17.4248 15.8527C18.4732 14.5624 19.1151 12.9922 19.2791 11.3438H10.9675C10.5062 11.3438 10.1322 10.966 10.1322 10.5C10.1322 10.034 10.5062 9.65627 10.9675 9.65627H20.1563C20.6177 9.65627 20.9917 10.034 20.9917 10.5C20.9917 12.8425 20.1875 15.1125 18.7163 16.9232C17.245 18.734 15.1977 19.9735 12.9231 20.4305C10.6486 20.8875 8.28746 20.5337 6.24216 19.4295C4.19686 18.3252 2.5939 16.5388 1.70641 14.3747C0.818909 12.2105 0.701787 9.80249 1.375 7.56088C2.04821 5.31928 3.4701 3.38279 5.39839 2.08139C7.32669 0.779978 9.64208 0.194168 11.9501 0.42377C14.258 0.653373 16.4158 1.68418 18.0557 3.34056C18.3819 3.67006 18.3819 4.2043 18.0557 4.5338C17.7294 4.86331 17.2005 4.86331 16.8743 4.5338C15.5077 3.15349 13.7096 2.29448 11.7863 2.10314Z" fill="white"/>
</svg>
