<svg width="85" height="77" viewBox="0 0 85 77" fill="none" xmlns="http://www.w3.org/2000/svg">
<path fill-rule="evenodd" clip-rule="evenodd" d="M36.7693 1.68527C37.2836 0.652419 38.3353 0 39.4859 0C41.4804 0 43.4551 0.394297 45.2978 1.16033C47.1401 1.9264 48.8143 3.04921 50.2249 4.4647C51.635 5.88018 52.7536 7.56062 53.517 9.41003C54.28 11.2594 54.6728 13.2416 54.6728 15.2434V21.3408H75.1277C76.42 21.3408 77.6973 21.6166 78.875 22.1499C80.0527 22.6832 81.1041 23.4618 81.959 24.434C82.8143 25.4062 83.4534 26.5498 83.8345 27.789C84.2156 29.0281 84.3298 30.3345 84.1698 31.6213L79.6137 68.2056C79.338 70.4173 78.2672 72.4522 76.6023 73.9278C74.9374 75.4029 72.7926 76.2171 70.5717 76.2171H6.07476C4.46365 76.2171 2.91852 75.5749 1.77926 74.4314C0.640037 73.288 0 71.7368 0 70.1198V36.5842C0 34.9672 0.640037 33.4162 1.77926 32.2727C2.91852 31.1293 4.46365 30.4869 6.07476 30.4869H22.4219L36.7693 1.68527ZM21.2617 36.5842H6.07476V70.1198H21.2617V36.5842ZM27.3364 70.1198H70.5717C71.312 70.1198 72.0268 69.8482 72.582 69.3568C73.1368 68.8649 73.494 68.1865 73.5856 67.4491L78.1416 30.865C78.1951 30.436 78.157 30.0006 78.0303 29.5876C77.9031 29.1745 77.6901 28.7933 77.405 28.4692C77.1199 28.1451 76.7695 27.8856 76.3767 27.7079C75.9843 27.5301 75.5586 27.4382 75.1277 27.4382H51.6354C49.958 27.4382 48.598 26.0732 48.598 24.3895V15.2434C48.598 14.0424 48.3623 12.853 47.9043 11.7434C47.4467 10.6337 46.7752 9.62547 45.9292 8.77619C45.0832 7.92691 44.0784 7.25319 42.9728 6.79357C42.4237 6.5652 41.8547 6.39187 41.2747 6.27529L27.3364 34.2552V70.1198Z" fill="#1D3C6E"/>
</svg>
