<svg width="59" height="74" viewBox="0 0 59 74" fill="none" xmlns="http://www.w3.org/2000/svg">
<path fill-rule="evenodd" clip-rule="evenodd" d="M13.3251 71.3424C13.3251 69.8886 14.5037 68.7099 15.9576 68.7099H42.2826C43.7365 68.7099 44.9151 69.8886 44.9151 71.3424C44.9151 72.7963 43.7365 73.9749 42.2826 73.9749H15.9576C14.5037 73.9749 13.3251 72.7963 13.3251 71.3424Z" fill="#1D3C6E"/>
<path fill-rule="evenodd" clip-rule="evenodd" d="M29.1201 39.7524C30.574 39.7524 31.7526 40.9311 31.7526 42.3849V60.8124C31.7526 62.2663 30.574 63.4449 29.1201 63.4449C27.6662 63.4449 26.4876 62.2663 26.4876 60.8124V42.3849C26.4876 40.9311 27.6662 39.7524 29.1201 39.7524Z" fill="#1D3C6E"/>
<path fill-rule="evenodd" clip-rule="evenodd" d="M16.7286 29.9935C17.7567 28.9654 19.4235 28.9654 20.4515 29.9935L29.1201 38.662L37.7886 29.9935C38.8167 28.9654 40.4835 28.9654 41.5115 29.9935C42.5396 31.0215 42.5396 32.6883 41.5115 33.7164L30.9815 44.2464C29.9535 45.2745 28.2867 45.2745 27.2586 44.2464L16.7286 33.7164C15.7006 32.6883 15.7006 31.0215 16.7286 29.9935Z" fill="#1D3C6E"/>
<path fill-rule="evenodd" clip-rule="evenodd" d="M42.515 9.68018C38.4102 6.86655 33.5238 5.41681 28.5487 5.53661C15.7209 5.83853 5.35703 16.5205 5.42796 29.3564C5.44491 32.9303 6.27176 36.456 7.84634 39.6644C9.42092 42.8727 11.7023 45.6825 14.5189 47.8824L12.8985 49.9571L14.5156 47.8798C15.7808 48.8647 16.8052 50.1247 17.5112 51.5644C18.2171 53.004 18.586 54.5854 18.59 56.1888L18.59 56.1953L18.59 58.1799L39.6501 58.1799L39.6502 56.182C39.6597 54.5713 40.0354 52.9839 40.7487 51.5397C41.4606 50.0985 42.4902 48.8376 43.7599 47.852C47.6705 44.7786 50.5148 40.5523 51.8896 35.7722C53.2651 30.9895 53.0997 25.8952 51.417 21.2118C49.7344 16.5285 46.6197 12.4938 42.515 9.68018ZM13.325 56.1991C13.3226 55.3959 13.1376 54.6037 12.7839 53.8824C12.4298 53.1603 11.916 52.5284 11.2814 52.0344L12.8985 49.9571L11.2781 52.0318C7.83434 49.3421 5.04503 45.9067 3.11986 41.984C1.19483 38.0615 0.183896 33.7537 0.163035 29.3844C0.0768854 13.6834 12.7204 0.643466 28.422 0.273131C34.502 0.12703 40.4752 1.89887 45.4917 5.33745C50.5086 8.7763 54.3153 13.7075 56.3719 19.4316C58.4286 25.1557 58.6306 31.382 56.9495 37.2274C55.2683 43.0728 51.7893 48.2404 47.006 51.9973L46.9922 52.0081C46.3499 52.5057 45.8291 53.1429 45.4693 53.8714C45.1105 54.5978 44.9211 55.396 44.9152 56.2061L44.9151 58.18C44.9151 59.5763 44.3604 60.9155 43.373 61.9028C42.3856 62.8902 41.0465 63.4449 39.6501 63.4449H18.59C17.1937 63.4449 15.8545 62.8902 14.8672 61.9028C13.8798 60.9155 13.3251 59.5763 13.325 58.18L13.325 56.1991Z" fill="#1D3C6E"/>
</svg>
