<svg width="70" height="74" viewBox="0 0 70 74" fill="none" xmlns="http://www.w3.org/2000/svg">
<path fill-rule="evenodd" clip-rule="evenodd" d="M33.7935 0.623617C34.6131 0.145481 35.6267 0.145481 36.4463 0.623617L68.0363 19.0511C68.8451 19.5229 69.3424 20.3887 69.3424 21.325C69.3424 22.2613 68.8451 23.1271 68.0363 23.5989L36.4463 42.0264C35.6267 42.5046 34.6131 42.5046 33.7935 42.0264L2.20346 23.5989C1.39471 23.1271 0.897401 22.2613 0.897401 21.325C0.897401 20.3887 1.39471 19.5229 2.20346 19.0511L33.7935 0.623617ZM8.75445 21.325L35.1199 36.7049L61.4853 21.325L35.1199 5.94517L8.75445 21.325ZM1.256 35.7936C1.98858 34.5377 3.6005 34.1135 4.85634 34.8461L35.1199 52.4999L65.3835 34.8461C66.6393 34.1135 68.2512 34.5377 68.9838 35.7936C69.7164 37.0494 69.2922 38.6613 68.0363 39.3939L36.4463 57.8214C35.6267 58.2996 34.6131 58.2996 33.7935 57.8214L2.20346 39.3939C0.947621 38.6613 0.52343 37.0494 1.256 35.7936ZM1.256 51.5886C1.98858 50.3327 3.6005 49.9085 4.85634 50.6411L35.1199 68.2949L65.3835 50.6411C66.6393 49.9085 68.2512 50.3327 68.9838 51.5886C69.7164 52.8444 69.2922 54.4563 68.0363 55.1889L36.4463 73.6164C35.6267 74.0946 34.6131 74.0946 33.7935 73.6164L2.20346 55.1889C0.947621 54.4563 0.52343 52.8444 1.256 51.5886Z" fill="#1D3C6E"/>
</svg>
