<svg width="81" height="53" viewBox="0 0 81 53" fill="none" xmlns="http://www.w3.org/2000/svg">
<path fill-rule="evenodd" clip-rule="evenodd" d="M26.9575 6.05995C18.9611 6.05995 12.4787 12.5423 12.4787 20.5387C12.4787 28.5351 18.9611 35.0175 26.9575 35.0175C34.9539 35.0175 41.4362 28.5351 41.4362 20.5387C41.4362 12.5423 34.9539 6.05995 26.9575 6.05995ZM7.21375 20.5387C7.21375 9.63453 16.0533 0.794952 26.9575 0.794952C37.8617 0.794952 46.7012 9.63453 46.7012 20.5387C46.7012 31.4429 37.8617 40.2825 26.9575 40.2825C16.0533 40.2825 7.21375 31.4429 7.21375 20.5387Z" fill="#1D3C6E"/>
<path fill-rule="evenodd" clip-rule="evenodd" d="M55.9794 6.22382C53.9343 5.90975 51.8457 6.03758 49.8542 6.59868C48.4548 6.99296 47.0008 6.17814 46.6065 4.77874C46.2122 3.37933 47.027 1.92526 48.4264 1.53098C51.142 0.765869 53.99 0.591573 56.7786 1.01983C59.5671 1.44808 62.2316 2.46894 64.5924 4.01365C66.9533 5.55835 68.9557 7.59104 70.4648 9.97479C71.9739 12.3585 72.9546 15.038 73.341 17.8327C73.7273 20.6274 73.5103 23.4725 72.7045 26.1762C71.8987 28.88 70.5229 31.3797 68.6697 33.507C66.8165 35.6343 64.5289 37.3397 61.9611 38.5085C59.3933 39.6772 56.6048 40.2821 53.7836 40.2824C52.3297 40.2826 51.1509 39.1041 51.1508 37.6502C51.1506 36.1964 52.3291 35.0176 53.783 35.0174C55.852 35.0172 57.8969 34.5736 59.78 33.7165C61.6632 32.8594 63.3408 31.6087 64.6998 30.0486C66.0589 28.4885 67.0679 26.6554 67.6588 24.6725C68.2497 22.6897 68.4089 20.6032 68.1256 18.5537C67.8422 16.5042 67.123 14.5392 66.0163 12.791C64.9096 11.0429 63.4411 9.55219 61.7097 8.41936C59.9784 7.28654 58.0244 6.53788 55.9794 6.22382Z" fill="#1D3C6E"/>
<path fill-rule="evenodd" clip-rule="evenodd" d="M26.9575 40.2825C22.7331 40.2826 18.5698 41.2992 14.8209 43.2463C11.072 45.1934 7.84667 48.014 5.41714 51.4698C4.58098 52.6592 2.93895 52.9455 1.74957 52.1094C0.560193 51.2732 0.273854 49.6312 1.11002 48.4418C4.02535 44.295 7.89562 40.9104 12.3941 38.574C16.8926 36.2375 21.8884 35.0176 26.9575 35.0175C32.0266 35.0173 37.02 36.2367 41.5187 38.5728C46.0173 40.909 49.8879 44.2932 52.8035 48.4398C53.6398 49.6291 53.3536 51.2712 52.1642 52.1074C50.9749 52.9437 49.3329 52.6575 48.4966 51.4682C46.0668 48.0125 42.8413 45.1922 39.0922 43.2454C35.3432 41.2985 31.1819 40.2823 26.9575 40.2825Z" fill="#1D3C6E"/>
<path fill-rule="evenodd" clip-rule="evenodd" d="M65.9209 43.2411C62.1721 41.2942 58.0077 40.2794 53.7836 40.2824C52.3297 40.2826 51.1509 39.1041 51.1508 37.6502C51.1506 36.1964 52.3291 35.0176 53.783 35.0174C58.8531 35.0138 63.8478 36.2319 68.3474 38.5686C72.8469 40.9053 76.7172 44.2918 79.6304 48.4414C80.4658 49.6313 80.1784 51.2731 78.9885 52.1085C77.7986 52.9439 76.1567 52.6565 75.3213 51.4666C72.8942 48.0094 69.6697 45.1879 65.9209 43.2411Z" fill="#1D3C6E"/>
</svg>
