<svg width="61" height="59" viewBox="0 0 61 59" fill="none" xmlns="http://www.w3.org/2000/svg">
<path fill-rule="evenodd" clip-rule="evenodd" d="M23.6562 4.875C22.4462 4.875 21.2857 5.36228 20.4301 6.22963C19.5744 7.09699 19.0938 8.27337 19.0938 9.5V21.0625C19.0938 22.2891 19.5744 23.4655 20.4301 24.3329C21.2857 25.2002 22.4462 25.6875 23.6562 25.6875C24.8663 25.6875 26.0268 25.2002 26.8824 24.3329C27.7381 23.4655 28.2188 22.2891 28.2188 21.0625V9.5C28.2188 8.27337 27.7381 7.09699 26.8824 6.22963C26.0268 5.36228 24.8663 4.875 23.6562 4.875ZM17.2039 2.95926C18.9152 1.22455 21.2362 0.25 23.6562 0.25C26.0764 0.25 28.3973 1.22455 30.1086 2.95926C31.8199 4.69397 32.7812 7.04675 32.7812 9.5V21.0625C32.7812 23.5158 31.8199 25.8685 30.1086 27.6032C28.3973 29.338 26.0763 30.3125 23.6562 30.3125C21.2362 30.3125 18.9152 29.338 17.2039 27.6032C15.4926 25.8685 14.5312 23.5158 14.5312 21.0625V9.5C14.5312 7.04675 15.4926 4.69397 17.2039 2.95926Z" fill="#1D3C6E"/>
<path fill-rule="evenodd" clip-rule="evenodd" d="M37.3438 4.875C36.1337 4.875 34.9732 5.36228 34.1176 6.22963C33.2619 7.09699 32.7812 8.27337 32.7812 9.5C32.7812 10.7772 31.7599 11.8125 30.5 11.8125C29.2401 11.8125 28.2188 10.7772 28.2188 9.5C28.2188 7.04675 29.1801 4.69397 30.8914 2.95926C32.6027 1.22455 34.9236 0.25 37.3438 0.25C39.7639 0.25 42.0848 1.22455 43.7961 2.95926C45.5074 4.69397 46.4688 7.04675 46.4688 9.5V16.4375C46.4688 17.7147 45.4474 18.75 44.1875 18.75C42.9276 18.75 41.9062 17.7147 41.9062 16.4375V9.5C41.9062 8.27337 41.4256 7.09699 40.5699 6.22963C39.7143 5.36228 38.5538 4.875 37.3438 4.875Z" fill="#1D3C6E"/>
<path fill-rule="evenodd" clip-rule="evenodd" d="M9.96875 11.8125C8.7587 11.8125 7.59821 12.2998 6.74258 13.1671C5.88694 14.0345 5.40625 15.2109 5.40625 16.4375V21.0625C5.40625 22.2891 5.88694 23.4655 6.74258 24.3329C7.59821 25.2002 8.7587 25.6875 9.96875 25.6875C11.1788 25.6875 12.3393 25.2002 13.1949 24.3329C14.0506 23.4655 14.5312 22.2891 14.5312 21.0625V16.4375C14.5312 15.2109 14.0506 14.0345 13.1949 13.1671C12.3393 12.2998 11.1788 11.8125 9.96875 11.8125ZM5.42914 29.0866C6.79905 29.883 8.36206 30.3125 9.96875 30.3125C12.3888 30.3125 14.7098 29.3379 16.4211 27.6032C18.1324 25.8685 19.0938 23.5158 19.0938 21.0625V16.4375C19.0938 13.9842 18.1324 11.6315 16.4211 9.89676C14.7098 8.16205 12.3888 7.1875 9.96875 7.1875C7.54865 7.1875 5.22767 8.16205 3.5164 9.89676C1.80513 11.6315 0.84375 13.9842 0.84375 16.4375V28C0.84375 35.9731 3.96824 43.6196 9.52986 49.2574C15.0915 54.8952 22.6347 58.0625 30.5 58.0625C38.3653 58.0625 45.9085 54.8952 51.4701 49.2574C57.0318 43.6196 60.1562 35.9731 60.1562 28V23.375C60.1562 20.9217 59.1949 18.569 57.4836 16.8343C55.7723 15.0995 53.4513 14.125 51.0312 14.125H32.7812C31.5712 14.125 30.4107 14.6123 29.5551 15.4796C28.6994 16.347 28.2188 17.5234 28.2188 18.75V23.375C28.2188 25.8283 29.1801 28.181 30.8914 29.9157C31.4878 30.5203 32.1583 31.0326 32.8812 31.4434C32.6574 31.6424 32.4395 31.8492 32.2277 32.0639C29.6608 34.666 28.2188 38.1951 28.2188 41.875C28.2188 43.1522 29.2401 44.1875 30.5 44.1875C31.7599 44.1875 32.7812 43.1522 32.7812 41.875C32.7812 39.4217 33.7426 37.069 35.4539 35.3343C37.1652 33.5995 39.4861 32.625 41.9062 32.625C43.1661 32.625 44.1875 31.5897 44.1875 30.3125C44.1875 29.0353 43.1661 28 41.9062 28H37.3438C36.1337 28 34.9732 27.5127 34.1176 26.6454C33.2619 25.778 32.7812 24.6016 32.7812 23.375L32.7812 18.75H51.0312C52.2413 18.75 53.4018 19.2373 54.2574 20.1046C55.1131 20.972 55.5938 22.1484 55.5938 23.375V28C55.5938 34.7464 52.95 41.2166 48.244 45.987C43.538 50.7575 37.1553 53.4375 30.5 53.4375C23.8447 53.4375 17.462 50.7575 12.756 45.987C8.30331 41.4733 5.6968 35.4379 5.42914 29.0866Z" fill="#1D3C6E"/>
</svg>
