<svg width="74" height="73" viewBox="0 0 74 73" fill="none" xmlns="http://www.w3.org/2000/svg">
<path fill-rule="evenodd" clip-rule="evenodd" d="M59.371 15.1765C60.4555 14.6416 61.7096 14.5482 62.8633 14.9164C64.0169 15.2847 64.9778 16.0852 65.5391 17.1455L72.648 30.5755C72.9323 31.1126 73.1053 31.7002 73.1569 32.3039M56.3267 21.7791L63.4356 35.2091L68.5483 32.6873M56.3267 21.7791L61.4394 19.2573L68.5483 32.6873M59.371 15.1765L52.1533 18.7366L59.371 15.1765ZM52.1533 18.7366C51.5985 19.0103 51.1783 19.4924 50.9873 20.0747L52.1533 18.7366ZM50.9873 20.0747C50.7963 20.6569 50.8505 21.2904 51.1376 21.8329L50.9873 20.0747ZM51.1376 21.8329L60.3876 39.3079L51.1376 21.8329ZM73.1569 32.3039C73.2085 32.9077 73.1377 33.5155 72.9486 34.092C72.7595 34.6685 72.4559 35.202 72.0555 35.6615C71.6551 36.121 71.166 36.4972 70.6166 36.7682L63.4717 40.2923C62.3435 40.8488 60.9715 40.4108 60.3876 39.3079" fill="#1D3C6E"/>
<path fill-rule="evenodd" clip-rule="evenodd" d="M11.1369 14.6108C12.2905 14.2425 13.5446 14.3359 14.6292 14.8708L14.6292 14.8708L21.8468 18.4309C22.4017 18.7046 22.8218 19.1867 23.0128 19.769C23.2038 20.3512 23.1497 20.9848 22.8625 21.5272L13.6125 39.0022C13.0287 40.1051 11.6566 40.5431 10.5285 39.9867L3.38354 36.4625C2.83418 36.1915 2.34503 35.8153 1.94464 35.3559C1.54426 34.8964 1.24065 34.3628 1.05156 33.7864C0.862457 33.2099 0.791649 32.602 0.843265 31.9983C0.89488 31.3945 1.06789 30.8069 1.35218 30.2698L8.46107 16.8398C8.46107 16.8398 8.46108 16.8398 8.46108 16.8398C9.02232 15.7795 9.98322 14.9791 11.1369 14.6108ZM10.5007 17.8905L10.5109 17.8958L10.5007 17.8905L17.6734 21.4734L12.5608 18.9517L13.595 16.9112L12.5608 18.9517L12.5608 18.9517L5.4519 32.3817L10.5645 34.9034" fill="#1D3C6E"/>
<path fill-rule="evenodd" clip-rule="evenodd" d="M9.74092 36.5409C10.5276 35.5484 11.981 35.373 12.9871 36.1491L28.7876 48.3375L45.5407 52.4692L56.1135 42.0393L60.6798 36.7695C61.5096 35.8118 62.9694 35.6991 63.9402 36.5177C64.911 37.3363 65.0253 38.7763 64.1954 39.734L59.5704 45.0716C59.5313 45.1168 59.4904 45.1604 59.4478 45.2024L48.8111 55.6953C48.2464 56.2525 47.545 56.6558 46.7753 56.8661C46.0056 57.0764 45.1938 57.0865 44.419 56.8954L27.6659 52.7638C27.0374 52.6088 26.4489 52.3253 25.9386 51.9316L10.1381 39.7432C9.13204 38.9671 8.9542 37.5334 9.74092 36.5409Z" fill="#1D3C6E"/>
<path fill-rule="evenodd" clip-rule="evenodd" d="M39.6566 18.8429C40.2178 18.6136 40.8192 18.4956 41.4266 18.4956H53.1874C54.4646 18.4956 55.4999 19.517 55.4999 20.7769C55.4999 22.0368 54.4646 23.0581 53.1874 23.0581L41.4266 23.0581L30.1143 34.2175L31.6812 35.3769C32.882 36.2653 34.3426 36.7456 35.8437 36.7456C37.3448 36.7456 38.8053 36.2653 40.0062 35.3769L43.7062 32.6394C44.5183 32.0385 45.6328 32.0304 46.4538 32.6194L59.1726 41.7444C60.2055 42.4855 60.4338 43.9122 59.6826 44.9311C58.9315 45.9501 57.4852 46.1753 56.4523 45.4343L45.1148 37.3003L42.7812 39.0269C40.7798 40.5076 38.3455 41.3081 35.8437 41.3081C33.3419 41.3081 30.9076 40.5076 28.9062 39.0269L27.3393 37.8675C26.8091 37.4753 26.3707 36.9753 26.0535 36.4014C25.7363 35.8275 25.5479 35.193 25.5009 34.541C25.4539 33.8889 25.5495 33.2346 25.7812 32.6221C26.0129 32.0097 26.3753 31.4536 26.8439 30.9914L38.1562 19.8319C38.5857 19.4083 39.0955 19.0722 39.6566 18.8429Z" fill="#1D3C6E"/>
<path fill-rule="evenodd" clip-rule="evenodd" d="M35.1661 14.0149C36.2259 13.7101 37.3614 13.7893 38.3672 14.2382L48.3597 18.6986C49.5232 19.2179 50.0397 20.5695 49.5132 21.7174C48.9867 22.8652 47.6166 23.3747 46.453 22.8553L36.4605 18.395L35.8133 16.2049L36.4605 18.395L21.6259 22.6614C20.3997 23.014 19.116 22.3193 18.7585 21.1098C18.4011 19.9003 19.1053 18.6339 20.3314 18.2812L35.1661 14.0149L35.7248 15.9053L35.1661 14.0149Z" fill="#1D3C6E"/>
<path fill-rule="evenodd" clip-rule="evenodd" d="M14.4422 50.9722C15.2801 50.0213 16.7407 49.9205 17.7046 50.7471L24.2237 56.3371M14.4422 50.9722C13.6044 51.9231 13.7065 53.364 14.6705 54.1905L14.4422 50.9722ZM14.6705 54.1905L21.1896 59.7805L14.6705 54.1905ZM21.1896 59.7805C21.7396 60.2522 22.3949 60.589 23.102 60.7634L21.1896 59.7805ZM24.2237 56.3371L32.9359 58.4857C34.1749 58.7913 34.9282 60.0298 34.6185 61.2521C34.3087 62.4744 33.0532 63.2175 31.8142 62.912L23.102 60.7634" fill="#1D3C6E"/>
</svg>
