<svg width="71" height="47" viewBox="0 0 71 47" fill="none" xmlns="http://www.w3.org/2000/svg">
<path fill-rule="evenodd" clip-rule="evenodd" d="M23.4377 5.50004C16.4133 5.50004 10.719 11.1944 10.719 18.2188C10.719 25.2432 16.4133 30.9375 23.4377 30.9375C30.4621 30.9375 36.1565 25.2432 36.1565 18.2188C36.1565 11.1944 30.4621 5.50004 23.4377 5.50004ZM6.09397 18.2188C6.09397 8.6401 13.859 0.87504 23.4377 0.87504C33.0164 0.87504 40.7815 8.6401 40.7815 18.2188C40.7815 27.7975 33.0164 35.5625 23.4377 35.5625C13.859 35.5625 6.09397 27.7975 6.09397 18.2188Z" fill="#1D3C6E"/>
<path fill-rule="evenodd" clip-rule="evenodd" d="M48.9318 5.64398C47.1353 5.3681 45.3006 5.48038 43.5512 5.97328C42.3219 6.31963 41.0446 5.60386 40.6982 4.37457C40.3519 3.14527 41.0676 1.86795 42.2969 1.5216C44.6824 0.849493 47.1842 0.696383 49.6338 1.07258C52.0834 1.44878 54.424 2.34554 56.4978 3.70248C58.5717 5.05941 60.3307 6.84501 61.6564 8.939C62.982 11.033 63.8435 13.3867 64.1829 15.8417C64.5223 18.2967 64.3317 20.7959 63.6238 23.171C62.916 25.5462 61.7074 27.742 60.0795 29.6107C58.4516 31.4794 56.4421 32.9775 54.1864 34.0042C51.9307 35.0309 49.4812 35.5622 47.0029 35.5625C45.7257 35.5627 44.6903 34.5274 44.6901 33.2503C44.69 31.9731 45.7252 30.9377 47.0023 30.9375C48.8199 30.9373 50.6162 30.5476 52.2704 29.7947C53.9247 29.0418 55.3983 27.9431 56.5922 26.5727C57.7861 25.2023 58.6724 23.5919 59.1915 21.8501C59.7106 20.1083 59.8504 18.2755 59.6015 16.4751C59.3526 14.6747 58.7208 12.9486 57.7486 11.4129C56.7764 9.87726 55.4865 8.56777 53.9656 7.57265C52.4447 6.57752 50.7282 5.91987 48.9318 5.64398Z" fill="#1D3C6E"/>
<path fill-rule="evenodd" clip-rule="evenodd" d="M23.4377 35.5625C19.7268 35.5627 16.0696 36.4557 12.7764 38.1661C9.48324 39.8766 6.64996 42.3542 4.51576 45.39C3.78124 46.4348 2.33881 46.6863 1.29401 45.9518C0.249203 45.2173 -0.00232989 43.7748 0.732191 42.73C3.29314 39.0873 6.69296 36.1142 10.6446 34.0617C14.5963 32.0093 18.9848 30.9377 23.4377 30.9375C27.8906 30.9374 32.2771 32.0086 36.2289 34.0607C40.1807 36.1129 43.5807 39.0858 46.142 42.7283C46.8766 43.7731 46.6251 45.2155 45.5804 45.9501C44.5357 46.6847 43.0932 46.4333 42.3586 45.3885C40.2242 42.353 37.3907 39.8755 34.0974 38.1653C30.8041 36.4551 27.1486 35.5624 23.4377 35.5625Z" fill="#1D3C6E"/>
<path fill-rule="evenodd" clip-rule="evenodd" d="M57.6648 38.1615C54.3717 36.4513 50.7136 35.5598 47.0029 35.5625C45.7257 35.5627 44.6903 34.5274 44.6901 33.2503C44.69 31.9731 45.7252 30.9377 47.0023 30.9375C51.4562 30.9343 55.8438 32.0043 59.7964 34.057C63.749 36.1096 67.1488 39.0845 69.7079 42.7297C70.4417 43.775 70.1892 45.2172 69.144 45.9511C68.0987 46.6849 66.6564 46.4324 65.9226 45.3872C63.7904 42.3502 60.9579 39.8717 57.6648 38.1615Z" fill="#1D3C6E"/>
</svg>
