<svg width="27" height="16" viewBox="0 0 27 16" fill="none" xmlns="http://www.w3.org/2000/svg">
<path d="M1.71 15.82C1.43 15.82 1.22 15.7267 1.08 15.54C0.986667 15.3533 1.01 15.12 1.15 14.84L7.66 0.699996C7.89333 0.23333 8.22 -3.33786e-06 8.64 -3.33786e-06H14.31C14.9633 -3.33786e-06 15.15 0.30333 14.87 0.909997L10.25 15.05C10.11 15.5633 9.78333 15.82 9.27 15.82H1.71ZM13.12 15.82C12.84 15.82 12.6533 15.7267 12.56 15.54C12.4667 15.3533 12.49 15.12 12.63 14.84L19 0.699996C19.2333 0.23333 19.56 -3.33786e-06 19.98 -3.33786e-06H25.65C26.3033 -3.33786e-06 26.49 0.30333 26.21 0.909997L21.73 15.05C21.59 15.5633 21.2633 15.82 20.75 15.82H13.12Z" fill="#1D3C6E"/>
</svg>
