<svg width="21" height="21" viewBox="0 0 21 21" fill="none" xmlns="http://www.w3.org/2000/svg">
<path fill-rule="evenodd" clip-rule="evenodd" d="M0.166016 2.0625C0.166016 1.13052 0.91401 0.375 1.83671 0.375H18.5436C19.4663 0.375 20.2143 1.13052 20.2143 2.0625V18.9375C20.2143 19.8695 19.4663 20.625 18.5436 20.625H1.83671C0.91401 20.625 0.166016 19.8695 0.166016 18.9375V2.0625ZM18.5436 2.0625H1.83671V18.9375H18.5436V2.0625ZM6.01344 7.96885C6.47479 7.96885 6.84878 8.34661 6.84878 8.8126V15.5626C6.84878 16.0286 6.47479 16.4063 6.01344 16.4063C5.55209 16.4063 5.17809 16.0286 5.17809 15.5626V8.8126C5.17809 8.34661 5.55209 7.96885 6.01344 7.96885ZM10.169 8.62307C10.0839 8.24834 9.75166 7.96885 9.35482 7.96885C8.89347 7.96885 8.51948 8.34661 8.51948 8.8126V15.5626C8.51948 16.0286 8.89347 16.4063 9.35482 16.4063C9.81617 16.4063 10.1902 16.0286 10.1902 15.5626V11.7657C10.1902 11.2063 10.4102 10.6698 10.8018 10.2742C11.1935 9.87858 11.7247 9.65635 12.2785 9.65635C12.8324 9.65635 13.3636 9.87858 13.7552 10.2742C14.1469 10.6698 14.3669 11.2063 14.3669 11.7657V15.5626C14.3669 16.0286 14.7409 16.4063 15.2022 16.4063C15.6636 16.4063 16.0376 16.0286 16.0376 15.5626V11.7657C16.0376 10.7587 15.6415 9.79298 14.9366 9.08093C14.2316 8.36887 13.2755 7.96885 12.2785 7.96885C11.521 7.96885 10.7871 8.19979 10.169 8.62307Z" fill="white"/>
</svg>
