<svg width="25" height="19" viewBox="0 0 25 19" fill="none" xmlns="http://www.w3.org/2000/svg">
<path fill-rule="evenodd" clip-rule="evenodd" d="M11.3811 5.42298C11.1247 5.25037 10.7952 5.23428 10.5235 5.38111C10.2519 5.52794 10.0824 5.81385 10.0824 6.12502V12.875C10.0824 13.1862 10.2519 13.4721 10.5235 13.6189C10.7952 13.7658 11.1247 13.7497 11.3811 13.5771L16.3932 10.2021C16.6255 10.0456 16.7651 9.78213 16.7651 9.50002C16.7651 9.21791 16.6255 8.95446 16.3932 8.79798L11.3811 5.42298ZM14.4238 9.50002L11.7531 11.2985V7.70158L14.4238 9.50002Z" fill="white"/>
<path fill-rule="evenodd" clip-rule="evenodd" d="M22.1767 1.6375C20.3133 0.914216 17.8928 0.577347 15.9919 0.415728C13.7233 0.222834 11.4536 0.222834 9.18489 0.415726C7.28405 0.577344 4.85931 0.915877 2.99588 1.63916C2.25741 1.93049 1.68161 2.58764 1.48506 3.36338C1.2198 4.39287 0.893555 6.30712 0.893555 9.50005C0.893555 12.6929 1.21979 14.6072 1.48503 15.6366C1.68157 16.4124 2.25736 17.0696 2.99584 17.3609C4.85925 18.0842 7.28401 18.4227 9.18486 18.5844C11.4746 18.779 13.7022 18.779 15.9919 18.5844C17.8928 18.4227 20.3175 18.0842 22.1809 17.3609C22.9194 17.0696 23.4951 16.4125 23.6917 15.6368C23.957 14.6074 24.2832 12.6931 24.2832 9.50005C24.2832 6.30722 23.957 4.393 23.6918 3.36349C23.4953 2.58773 22.9152 1.92885 22.1767 1.6375ZM22.0734 3.78254C22.2961 4.64623 22.6126 6.41844 22.6126 9.50005C22.6126 12.5817 22.2961 14.3539 22.0734 15.2176C22.0087 15.474 21.8187 15.6915 21.5749 15.7883C19.9429 16.4213 17.7204 16.7439 15.8518 16.9028C13.6475 17.0902 11.5293 17.0902 9.325 16.9028C7.45638 16.7439 5.23384 16.4213 3.60187 15.7883C3.35804 15.6915 3.16812 15.474 3.10339 15.2175C2.88068 14.3539 2.56425 12.5817 2.56425 9.50005C2.56425 6.41844 2.88069 4.64621 3.1034 3.78253C3.16813 3.52605 3.35806 3.30859 3.60189 3.21174C5.23388 2.57883 7.45641 2.25616 9.32503 2.09728C11.5005 1.91231 13.6763 1.91231 15.8518 2.09729C17.7204 2.25617 19.943 2.57884 21.575 3.21176C21.8188 3.30862 22.0087 3.52606 22.0734 3.78254Z" fill="white"/>
</svg>
